<mxfile host="app.diagrams.net" agent="Mozilla/5.0 (Windows NT 10.0; Win64; x64) AppleWebKit/537.36 (KHTML, like Gecko) Chrome/129.0.0.0 Safari/537.36 Edg/129.0.0.0" border="50" scale="3" compressed="false" locked="false" version="24.7.7">
  <diagram name="Blank" id="YmL12bMKpDGza6XwsDPr">
    <mxGraphModel dx="923" dy="522" grid="0" gridSize="10" guides="1" tooltips="1" connect="1" arrows="1" fold="1" page="0" pageScale="1" pageWidth="827" pageHeight="1169" background="none" math="1" shadow="0">
      <root>
        <mxCell id="X5NqExCQtvZxIxQ7pmgY-0" />
        <mxCell id="1" parent="X5NqExCQtvZxIxQ7pmgY-0" />
        <mxCell id="VhkH85n-PybB8JSj3wVb-1" value="信号完整性&lt;div&gt;Signal Intagrity&lt;/div&gt;" style="ellipse;whiteSpace=wrap;html=1;" vertex="1" parent="1">
          <mxGeometry x="237" y="130" width="120" height="80" as="geometry" />
        </mxCell>
        <mxCell id="VhkH85n-PybB8JSj3wVb-2" value="模拟电路" style="whiteSpace=wrap;html=1;" vertex="1" parent="1">
          <mxGeometry x="407" y="91" width="120" height="60" as="geometry" />
        </mxCell>
        <mxCell id="VhkH85n-PybB8JSj3wVb-4" value="数字电路" style="whiteSpace=wrap;html=1;" vertex="1" parent="1">
          <mxGeometry x="407" y="189" width="120" height="60" as="geometry" />
        </mxCell>
        <mxCell id="VhkH85n-PybB8JSj3wVb-8" value="" style="strokeWidth=2;html=1;shape=mxgraph.flowchart.annotation_2;align=left;labelPosition=right;pointerEvents=1;" vertex="1" parent="1">
          <mxGeometry x="359" y="120" width="48" height="100" as="geometry" />
        </mxCell>
      </root>
    </mxGraphModel>
  </diagram>
</mxfile>
